<svg width="230" height="79" viewBox="0 0 230 79" fill="none" xmlns="http://www.w3.org/2000/svg">
<g clip-path="url(#clip0_1_181)">
<g filter="url(#filter0_f_1_181)">
<path d="M213 7H13C9.68629 7 7 9.68629 7 13V62C7 65.3137 9.68629 68 13 68H213C216.314 68 219 65.3137 219 62V13C219 9.68629 216.314 7 213 7Z" fill="white"/>
</g>
<path d="M78.8179 40.4064C78.8886 40.249 79.1122 40.249 79.1829 40.4064L81.1729 44.8404C81.202 44.9052 81.2633 44.9497 81.3339 44.9574L86.1658 45.4799C86.3374 45.4984 86.4065 45.711 86.2786 45.8269L82.6766 49.0898C82.6239 49.1374 82.6005 49.2095 82.6151 49.279L83.6113 54.0359C83.6467 54.2048 83.4658 54.3362 83.3161 54.2504L79.0999 51.8329C79.0383 51.7976 78.9625 51.7976 78.9009 51.8329L74.6847 54.2504C74.535 54.3362 74.3541 54.2048 74.3895 54.0359L75.3857 49.279C75.4003 49.2095 75.3769 49.1374 75.3242 49.0898L71.7222 45.8269C71.5943 45.711 71.6634 45.4984 71.835 45.4799L76.6669 44.9574C76.7375 44.9497 76.7988 44.9052 76.8279 44.8404L78.8179 40.4064Z" fill="#E4AA13"/>
<path d="M94.7262 40.4064C94.7968 40.249 95.0204 40.249 95.0911 40.4064L97.0812 44.8404C97.1102 44.9052 97.1715 44.9497 97.2421 44.9574L102.074 45.4799C102.246 45.4984 102.315 45.711 102.187 45.8269L98.5848 49.0898C98.5322 49.1374 98.5088 49.2095 98.5233 49.279L99.5196 54.0359C99.555 54.2048 99.3741 54.3362 99.2243 54.2504L95.0081 51.8329C94.9465 51.7976 94.8708 51.7976 94.8092 51.8329L90.5929 54.2504C90.4432 54.3362 90.2623 54.2048 90.2977 54.0359L91.2939 49.279C91.3085 49.2095 91.2851 49.1374 91.2325 49.0898L87.6304 45.8269C87.5025 45.711 87.5716 45.4984 87.7432 45.4799L92.5751 44.9574C92.6458 44.9497 92.707 44.9052 92.7361 44.8404L94.7262 40.4064Z" fill="#E4AA13"/>
<path d="M110.635 40.4064C110.705 40.249 110.929 40.249 111 40.4064L112.99 44.8404C113.019 44.9052 113.08 44.9497 113.151 44.9574L117.983 45.4799C118.154 45.4984 118.223 45.711 118.095 45.8269L114.493 49.0898C114.441 49.1374 114.417 49.2095 114.432 49.279L115.428 54.0359C115.463 54.2048 115.283 54.3362 115.133 54.2504L110.917 51.8329C110.855 51.7976 110.779 51.7976 110.718 51.8329L106.501 54.2504C106.352 54.3362 106.171 54.2048 106.206 54.0359L107.202 49.279C107.217 49.2095 107.194 49.1374 107.141 49.0898L103.539 45.8269C103.411 45.711 103.48 45.4984 103.652 45.4799L108.484 44.9574C108.554 44.9497 108.616 44.9052 108.645 44.8404L110.635 40.4064Z" fill="#E4AA13"/>
<path d="M126.545 40.4065C126.615 40.2491 126.839 40.2491 126.91 40.4065L128.9 44.8405C128.929 44.9053 128.99 44.9498 129.061 44.9575L133.892 45.48C134.064 45.4985 134.133 45.7111 134.005 45.827L130.403 49.0899C130.351 49.1375 130.327 49.2096 130.342 49.2791L131.338 54.036C131.373 54.2049 131.192 54.3363 131.043 54.2505L126.827 51.833C126.765 51.7977 126.689 51.7977 126.628 51.833L122.411 54.2505C122.262 54.3363 122.081 54.2049 122.116 54.036L123.112 49.2791C123.127 49.2096 123.104 49.1375 123.051 49.0899L119.449 45.827C119.321 45.7111 119.39 45.4985 119.562 45.48L124.394 44.9575C124.464 44.9498 124.525 44.9053 124.555 44.8405L126.545 40.4065Z" fill="#E4AA13"/>
<path d="M142.453 40.4065C142.523 40.2491 142.747 40.2491 142.818 40.4065L144.808 44.8405C144.837 44.9053 144.898 44.9498 144.969 44.9575L149.801 45.48C149.972 45.4985 150.041 45.7111 149.913 45.827L146.311 49.0899C146.259 49.1375 146.235 49.2096 146.25 49.2791L147.246 54.036C147.282 54.2049 147.101 54.3363 146.951 54.2505L142.735 51.833C142.673 51.7977 142.597 51.7977 142.536 51.833L138.32 54.2505C138.17 54.3363 137.989 54.2049 138.024 54.036L139.021 49.2791C139.035 49.2096 139.012 49.1375 138.959 49.0899L135.357 45.827C135.229 45.7111 135.298 45.4985 135.47 45.48L140.302 44.9575C140.372 44.9498 140.434 44.9053 140.463 44.8405L142.453 40.4065Z" fill="#E4AA13"/>
<path d="M80.248 24.08C79.96 23.5253 79.56 23.1093 79.048 22.832C78.536 22.544 77.944 22.4 77.272 22.4C76.536 22.4 75.88 22.5653 75.304 22.896C74.728 23.2267 74.2747 23.696 73.944 24.304C73.624 24.912 73.464 25.616 73.464 26.416C73.464 27.216 73.624 27.9253 73.944 28.544C74.2747 29.152 74.728 29.6213 75.304 29.952C75.88 30.2827 76.536 30.448 77.272 30.448C78.264 30.448 79.0693 30.1707 79.688 29.616C80.3067 29.0613 80.6853 28.3093 80.824 27.36H76.648V25.904H82.776V27.328C82.6587 28.192 82.3493 28.9867 81.848 29.712C81.3573 30.4373 80.712 31.0187 79.912 31.456C79.1227 31.8827 78.2427 32.096 77.272 32.096C76.2267 32.096 75.272 31.856 74.408 31.376C73.544 30.8853 72.856 30.208 72.344 29.344C71.8427 28.48 71.592 27.504 71.592 26.416C71.592 25.328 71.8427 24.352 72.344 23.488C72.856 22.624 73.544 21.952 74.408 21.472C75.2827 20.9813 76.2373 20.736 77.272 20.736C78.456 20.736 79.5067 21.0293 80.424 21.616C81.352 22.192 82.024 23.0133 82.44 24.08H80.248ZM88.399 32.144C87.567 32.144 86.815 31.9573 86.143 31.584C85.471 31.2 84.943 30.6667 84.559 29.984C84.175 29.2907 83.983 28.4907 83.983 27.584C83.983 26.688 84.1803 25.8933 84.575 25.2C84.9697 24.5067 85.5083 23.9733 86.191 23.6C86.8737 23.2267 87.6363 23.04 88.479 23.04C89.3217 23.04 90.0843 23.2267 90.767 23.6C91.4497 23.9733 91.9883 24.5067 92.383 25.2C92.7777 25.8933 92.975 26.688 92.975 27.584C92.975 28.48 92.7723 29.2747 92.367 29.968C91.9617 30.6613 91.407 31.2 90.703 31.584C90.0097 31.9573 89.2417 32.144 88.399 32.144ZM88.399 30.56C88.8683 30.56 89.3057 30.448 89.711 30.224C90.127 30 90.463 29.664 90.719 29.216C90.975 28.768 91.103 28.224 91.103 27.584C91.103 26.944 90.9803 26.4053 90.735 25.968C90.4897 25.52 90.1643 25.184 89.759 24.96C89.3537 24.736 88.9163 24.624 88.447 24.624C87.9777 24.624 87.5403 24.736 87.135 24.96C86.7403 25.184 86.4257 25.52 86.191 25.968C85.9563 26.4053 85.839 26.944 85.839 27.584C85.839 28.5333 86.079 29.2693 86.559 29.792C87.0497 30.304 87.663 30.56 88.399 30.56ZM98.6021 32.144C97.7701 32.144 97.0181 31.9573 96.3461 31.584C95.6741 31.2 95.1461 30.6667 94.7621 29.984C94.3781 29.2907 94.1861 28.4907 94.1861 27.584C94.1861 26.688 94.3835 25.8933 94.7781 25.2C95.1728 24.5067 95.7115 23.9733 96.3941 23.6C97.0768 23.2267 97.8395 23.04 98.6821 23.04C99.5248 23.04 100.287 23.2267 100.97 23.6C101.653 23.9733 102.191 24.5067 102.586 25.2C102.981 25.8933 103.178 26.688 103.178 27.584C103.178 28.48 102.975 29.2747 102.57 29.968C102.165 30.6613 101.61 31.2 100.906 31.584C100.213 31.9573 99.4448 32.144 98.6021 32.144ZM98.6021 30.56C99.0715 30.56 99.5088 30.448 99.9141 30.224C100.33 30 100.666 29.664 100.922 29.216C101.178 28.768 101.306 28.224 101.306 27.584C101.306 26.944 101.183 26.4053 100.938 25.968C100.693 25.52 100.367 25.184 99.9621 24.96C99.5568 24.736 99.1195 24.624 98.6501 24.624C98.1808 24.624 97.7435 24.736 97.3381 24.96C96.9435 25.184 96.6288 25.52 96.3941 25.968C96.1595 26.4053 96.0421 26.944 96.0421 27.584C96.0421 28.5333 96.2821 29.2693 96.7621 29.792C97.2528 30.304 97.8661 30.56 98.6021 30.56ZM108.533 23.04C109.216 23.04 109.819 23.1787 110.341 23.456C110.875 23.7227 111.291 24.0587 111.589 24.464V23.184H113.429V32.144C113.429 32.9547 113.259 33.6747 112.917 34.304C112.576 34.944 112.08 35.4453 111.429 35.808C110.789 36.1707 110.021 36.352 109.125 36.352C107.931 36.352 106.939 36.0693 106.149 35.504C105.36 34.9493 104.912 34.192 104.805 33.232H106.613C106.752 33.6907 107.045 34.0587 107.493 34.336C107.952 34.624 108.496 34.768 109.125 34.768C109.861 34.768 110.453 34.544 110.901 34.096C111.36 33.648 111.589 32.9973 111.589 32.144V30.672C111.28 31.088 110.859 31.44 110.325 31.728C109.803 32.0053 109.205 32.144 108.533 32.144C107.765 32.144 107.061 31.952 106.421 31.568C105.792 31.1733 105.291 30.6293 104.917 29.936C104.555 29.232 104.373 28.4373 104.373 27.552C104.373 26.6667 104.555 25.8827 104.917 25.2C105.291 24.5173 105.792 23.9893 106.421 23.616C107.061 23.232 107.765 23.04 108.533 23.04ZM111.589 27.584C111.589 26.976 111.461 26.448 111.205 26C110.96 25.552 110.635 25.2107 110.229 24.976C109.824 24.7413 109.387 24.624 108.917 24.624C108.448 24.624 108.011 24.7413 107.605 24.976C107.2 25.2 106.869 25.536 106.613 25.984C106.368 26.4213 106.245 26.944 106.245 27.552C106.245 28.16 106.368 28.6933 106.613 29.152C106.869 29.6107 107.2 29.9627 107.605 30.208C108.021 30.4427 108.459 30.56 108.917 30.56C109.387 30.56 109.824 30.4427 110.229 30.208C110.635 29.9733 110.96 29.632 111.205 29.184C111.461 28.7253 111.589 28.192 111.589 27.584ZM117.649 20.16V32H115.825V20.16H117.649ZM128.124 27.376C128.124 27.7067 128.102 28.0053 128.06 28.272H121.324C121.377 28.976 121.638 29.5413 122.108 29.968C122.577 30.3947 123.153 30.608 123.836 30.608C124.817 30.608 125.51 30.1973 125.916 29.376H127.884C127.617 30.1867 127.132 30.8533 126.428 31.376C125.734 31.888 124.87 32.144 123.836 32.144C122.993 32.144 122.236 31.9573 121.564 31.584C120.902 31.2 120.38 30.6667 119.996 29.984C119.622 29.2907 119.436 28.4907 119.436 27.584C119.436 26.6773 119.617 25.8827 119.98 25.2C120.353 24.5067 120.87 23.9733 121.532 23.6C122.204 23.2267 122.972 23.04 123.836 23.04C124.668 23.04 125.409 23.2213 126.06 23.584C126.71 23.9467 127.217 24.4587 127.58 25.12C127.942 25.7707 128.124 26.5227 128.124 27.376ZM126.22 26.8C126.209 26.128 125.969 25.5893 125.5 25.184C125.03 24.7787 124.449 24.576 123.756 24.576C123.126 24.576 122.588 24.7787 122.14 25.184C121.692 25.5787 121.425 26.1173 121.34 26.8H126.22Z" fill="#545454"/>
<path d="M169.129 43.592V40.952L176.977 29.72H180.889V40.664H183.001V43.592H180.889V47H177.529V43.592H169.129ZM177.745 33.32L172.825 40.664H177.745V33.32ZM187.012 47.168C186.404 47.168 185.9 46.984 185.5 46.616C185.116 46.232 184.924 45.76 184.924 45.2C184.924 44.64 185.116 44.176 185.5 43.808C185.9 43.424 186.404 43.232 187.012 43.232C187.604 43.232 188.092 43.424 188.476 43.808C188.86 44.176 189.052 44.64 189.052 45.2C189.052 45.76 188.86 46.232 188.476 46.616C188.092 46.984 187.604 47.168 187.012 47.168ZM194.303 37.736C192.703 36.904 191.903 35.616 191.903 33.872C191.903 33.008 192.119 32.224 192.551 31.52C192.999 30.8 193.663 30.232 194.543 29.816C195.439 29.384 196.527 29.168 197.807 29.168C199.087 29.168 200.167 29.384 201.047 29.816C201.943 30.232 202.607 30.8 203.039 31.52C203.487 32.224 203.711 33.008 203.711 33.872C203.711 34.752 203.495 35.528 203.063 36.2C202.631 36.856 202.055 37.368 201.335 37.736C202.215 38.12 202.903 38.68 203.399 39.416C203.895 40.152 204.143 41.024 204.143 42.032C204.143 43.12 203.863 44.072 203.303 44.888C202.759 45.688 202.007 46.304 201.047 46.736C200.087 47.168 199.007 47.384 197.807 47.384C196.607 47.384 195.527 47.168 194.567 46.736C193.623 46.304 192.871 45.688 192.311 44.888C191.767 44.072 191.495 43.12 191.495 42.032C191.495 41.024 191.743 40.152 192.239 39.416C192.735 38.664 193.423 38.104 194.303 37.736ZM200.447 34.352C200.447 33.568 200.207 32.96 199.727 32.528C199.263 32.096 198.623 31.88 197.807 31.88C197.007 31.88 196.367 32.096 195.887 32.528C195.423 32.96 195.191 33.576 195.191 34.376C195.191 35.096 195.431 35.672 195.911 36.104C196.407 36.536 197.039 36.752 197.807 36.752C198.575 36.752 199.207 36.536 199.703 36.104C200.199 35.656 200.447 35.072 200.447 34.352ZM197.807 39.2C196.895 39.2 196.151 39.432 195.575 39.896C195.015 40.36 194.735 41.024 194.735 41.888C194.735 42.688 195.007 43.344 195.551 43.856C196.111 44.352 196.863 44.6 197.807 44.6C198.751 44.6 199.495 44.344 200.039 43.832C200.583 43.32 200.855 42.672 200.855 41.888C200.855 41.04 200.575 40.384 200.015 39.92C199.455 39.44 198.719 39.2 197.807 39.2Z" fill="#E4AA13"/>
<mask id="mask0_1_181" style="mask-type:luminance" maskUnits="userSpaceOnUse" x="20" y="17" width="41" height="41">
<path d="M61 17H20V58H61V17Z" fill="white"/>
</mask>
<g mask="url(#mask0_1_181)">
<path d="M59.4511 33.9356L42.7276 33.9348C41.9891 33.9348 41.3906 34.5333 41.3906 35.2718V40.6142C41.3906 41.3525 41.9891 41.9512 42.7275 41.9512H52.1452C51.114 44.6275 49.1892 46.8688 46.7335 48.2929L50.7492 55.2444C57.1909 51.5189 60.9992 44.9822 60.9992 37.6649C60.9992 36.623 60.9224 35.8782 60.7688 35.0395C60.6521 34.4023 60.0989 33.9356 59.4511 33.9356Z" fill="#167EE6"/>
<path d="M40.5003 49.9783C35.8915 49.9783 31.8681 47.4602 29.7072 43.7339L22.7559 47.7405C26.2934 53.8715 32.9202 58 40.5003 58C44.2189 58 47.7277 56.9988 50.7503 55.254V55.2445L46.7347 48.2929C44.8978 49.3583 42.7722 49.9783 40.5003 49.9783Z" fill="#12B347"/>
<path d="M50.75 55.2541V55.2446L46.7343 48.293C44.8975 49.3582 42.7721 49.9784 40.5 49.9784V58.0001C44.2186 58.0001 47.7275 56.9989 50.75 55.2541Z" fill="#0F993E"/>
<path d="M28.0217 37.5C28.0217 35.2283 28.6417 33.1029 29.7068 31.2661L22.7556 27.2595C21.0011 30.2726 20 33.7719 20 37.5C20 41.2281 21.0011 44.7274 22.7556 47.7405L29.7068 43.7338C28.6417 41.8971 28.0217 39.7717 28.0217 37.5Z" fill="#FFD500"/>
<path d="M40.5003 25.0217C43.5058 25.0217 46.2664 26.0897 48.4226 27.866C48.9546 28.3042 49.7277 28.2726 50.215 27.7853L54.0003 24C54.5532 23.4472 54.5138 22.5422 53.9232 22.0299C50.3105 18.8957 45.6099 17 40.5003 17C32.9202 17 26.2934 21.1286 22.7559 27.2595L29.7072 31.2662C31.8681 27.5399 35.8915 25.0217 40.5003 25.0217Z" fill="#FF4B26"/>
<path d="M48.4223 27.866C48.9542 28.3042 49.7275 28.2726 50.2147 27.7853L54 24C54.5527 23.4472 54.5134 22.5422 53.9229 22.0299C50.3101 18.8956 45.6095 17 40.5 17V25.0217C43.5053 25.0217 46.266 26.0897 48.4223 27.866Z" fill="#D93F21"/>
</g>
</g>
<defs>
<filter id="filter0_f_1_181" x="-2" y="-2" width="230" height="79" filterUnits="userSpaceOnUse" color-interpolation-filters="sRGB">
<feFlood flood-opacity="0" result="BackgroundImageFix"/>
<feBlend mode="normal" in="SourceGraphic" in2="BackgroundImageFix" result="shape"/>
<feGaussianBlur stdDeviation="4.5" result="effect1_foregroundBlur_1_181"/>
</filter>
<clipPath id="clip0_1_181">
<rect width="230" height="79" fill="white"/>
</clipPath>
</defs>
</svg>
