<svg width="23" height="24" viewBox="0 0 23 24" fill="none" xmlns="http://www.w3.org/2000/svg">
<path d="M10.8 0C8.25392 0 5.81212 1.01143 4.01177 2.81177C2.21142 4.61212 1.2 7.05392 1.2 9.6V11.88C0.837999 12.1954 0.544684 12.5819 0.338257 13.0154C0.13183 13.4489 0.0166963 13.9201 0 14.4C0.0273328 15.0958 0.264225 15.7671 0.679635 16.326C1.09505 16.8849 1.6696 17.3052 2.328 17.532C3.888 21.264 7.02 24 10.8 24H14.4V21.6H10.8C8.088 21.6 5.628 19.56 4.392 16.332L4.14 15.672L3.432 15.6C3.14367 15.5592 2.87999 15.415 2.69012 15.1942C2.50025 14.9735 2.39713 14.6912 2.4 14.4C2.40126 14.1906 2.45731 13.9851 2.56257 13.8041C2.66783 13.623 2.81863 13.4727 3 13.368L3.6 13.02V10.8C3.6 10.4817 3.72643 10.1765 3.95147 9.95147C4.17651 9.72642 4.48174 9.6 4.8 9.6H16.8C17.1183 9.6 17.4235 9.72642 17.6485 9.95147C17.8736 10.1765 18 10.4817 18 10.8V16.8H13.092C12.9831 16.4945 12.7936 16.2241 12.5437 16.0174C12.2937 15.8108 11.9926 15.6754 11.6721 15.6258C11.3516 15.5762 11.0236 15.614 10.7228 15.7354C10.4221 15.8568 10.1597 16.0572 9.96348 16.3154C9.76723 16.5737 9.6444 16.8801 9.60797 17.2024C9.57153 17.5247 9.62285 17.8508 9.75649 18.1463C9.89014 18.4418 10.1011 18.6957 10.3672 18.8812C10.6333 19.0667 10.9445 19.1768 11.268 19.2H20.4C21.0365 19.2 21.647 18.9471 22.097 18.497C22.5471 18.047 22.8 17.4365 22.8 16.8V14.4C22.8 13.7635 22.5471 13.153 22.097 12.7029C21.647 12.2529 21.0365 12 20.4 12V9.6C20.4 7.05392 19.3886 4.61212 17.5882 2.81177C15.7879 1.01143 13.3461 0 10.8 0Z" fill="#13448F"/>
</svg>
