<svg width="58" height="58" viewBox="0 0 58 58" fill="none" xmlns="http://www.w3.org/2000/svg">
<rect x="0.5" y="0.5" width="57" height="57" rx="11.5" fill="#F7F7FD"/>
<rect x="0.5" y="0.5" width="57" height="57" rx="11.5" stroke="#D9D8D8"/>
<path d="M34.3628 38.4951C34.2177 38.4068 34.0913 38.2885 33.9908 38.145C33.9444 38.0789 33.9052 38.0089 33.8727 37.9367H17.3858V21.6863H39.7644V32.2972C40.2421 32.3403 40.643 32.6541 40.8113 33.0838C40.9603 33.0021 41.1264 32.9516 41.301 32.9362C41.4191 32.926 41.5363 32.9333 41.6501 32.9558V17.6379C41.6501 16.7714 40.9452 16.0664 40.0788 16.0664H17.0715C16.205 16.0664 15.5 16.7714 15.5 17.6379V38.251C15.5 39.1176 16.205 39.8225 17.0715 39.8225H34.2195C34.0857 39.5515 34.054 39.2456 34.1327 38.9513C34.1781 38.782 34.2567 38.6276 34.3628 38.4951ZM38.0387 18.7053C38.0387 18.3849 38.2985 18.125 38.6189 18.125H39.1992C39.5197 18.125 39.7794 18.3848 39.7794 18.7053V19.3629C39.7794 19.6834 39.5196 19.9432 39.1992 19.9432H38.6189C38.2984 19.9432 38.0387 19.6834 38.0387 19.3629V18.7053ZM35.3406 18.7053C35.3406 18.3849 35.6004 18.125 35.9208 18.125H36.5011C36.8216 18.125 37.0813 18.3848 37.0813 18.7053V19.3629C37.0813 19.6834 36.8216 19.9432 36.5011 19.9432H35.9208C35.6004 19.9432 35.3406 19.6834 35.3406 19.3629V18.7053ZM32.6424 18.7053C32.6424 18.3849 32.9023 18.125 33.2226 18.125H33.8029C34.1234 18.125 34.3832 18.3848 34.3832 18.7053V19.3629C34.3832 19.6834 34.1234 19.9432 33.8029 19.9432H33.2226C32.9023 19.9432 32.6424 19.6834 32.6424 19.3629V18.7053Z" fill="#13448F"/>
<path d="M43.4963 37.3884L43.3219 36.3996C43.2984 36.2664 43.1715 36.1775 43.0382 36.201L42.1588 36.3559C42.0533 36.1082 41.9185 35.8762 41.7584 35.6638L42.3328 34.9792C42.3745 34.9295 42.3949 34.8652 42.3893 34.8005C42.3836 34.7357 42.3523 34.676 42.3026 34.6342L41.5335 33.9887C41.4838 33.947 41.4193 33.9267 41.3546 33.9324C41.2899 33.938 41.2302 33.9692 41.1884 34.0189L40.6146 34.703C40.379 34.583 40.127 34.4905 39.8631 34.4294V33.5364C39.8631 33.4012 39.7534 33.2915 39.6182 33.2915H38.614C38.4788 33.2915 38.3691 33.4012 38.3691 33.5364V34.4294C38.105 34.4904 37.8533 34.583 37.6176 34.703L37.0436 34.019C36.9567 33.9154 36.8022 33.9019 36.6985 33.9888L35.9294 34.6342C35.8797 34.676 35.8485 34.7357 35.8428 34.8005C35.8372 34.8652 35.8575 34.9296 35.8992 34.9794L36.4736 35.6639C36.3139 35.8762 36.1788 36.1083 36.0732 36.356L35.1939 36.201C35.0609 36.1775 34.9338 36.2664 34.9102 36.3996L34.7359 37.3884C34.7246 37.4524 34.7392 37.5181 34.7764 37.5714C34.8138 37.6247 34.8704 37.6609 34.9344 37.6721L35.8144 37.8272C35.8287 38.0999 35.8762 38.3636 35.9526 38.6148L35.1792 39.0612C35.1229 39.0936 35.0819 39.1472 35.065 39.2098C35.0482 39.2726 35.0571 39.3394 35.0895 39.3957L35.5915 40.2652C35.6238 40.3215 35.6774 40.3625 35.7401 40.3793C35.761 40.3849 35.7823 40.3876 35.8035 40.3876C35.8461 40.3876 35.8883 40.3766 35.926 40.3548L36.7 39.9079C36.882 40.1029 37.0875 40.2758 37.3121 40.4219L37.0065 41.2616C36.9843 41.3227 36.9872 41.39 37.0147 41.4489C37.0421 41.5078 37.0918 41.5533 37.1528 41.5754L38.0962 41.9188C38.1233 41.9286 38.1517 41.9337 38.18 41.9337C38.2153 41.9337 38.2509 41.926 38.2836 41.9107C38.3425 41.8833 38.3879 41.8335 38.4101 41.7725L38.7157 40.9328C38.8467 40.9487 38.9801 40.9569 39.1153 40.9569C39.2506 40.9569 39.384 40.9485 39.515 40.9328L39.8207 41.7725C39.8428 41.8335 39.8884 41.8833 39.9472 41.9107C39.9798 41.926 40.0152 41.9337 40.0508 41.9337C40.079 41.9337 40.1074 41.9288 40.1345 41.9188L41.078 41.5754C41.1389 41.5533 41.1886 41.5076 41.216 41.4489C41.2435 41.39 41.2464 41.3227 41.2242 41.2616L40.9186 40.422C41.1429 40.2759 41.3484 40.1029 41.5307 39.908L42.3047 40.355C42.3423 40.3766 42.3846 40.3878 42.4272 40.3878C42.4484 40.3878 42.4698 40.3849 42.4906 40.3794C42.5533 40.3626 42.6068 40.3215 42.6392 40.2654L43.1412 39.3957C43.1736 39.3395 43.1825 39.2726 43.1657 39.2098C43.1488 39.1473 43.1078 39.0937 43.0515 39.0612L42.2782 38.6149C42.3546 38.3637 42.402 38.0999 42.4163 37.8274L43.2963 37.6722C43.3603 37.6609 43.4171 37.6247 43.4543 37.5714C43.4929 37.5181 43.5075 37.4524 43.4963 37.3884ZM39.1161 38.9597C38.3724 38.9597 37.7693 38.3566 37.7693 37.6128C37.7693 36.8689 38.3724 36.2659 39.1161 36.2659C39.86 36.2659 40.4631 36.8689 40.4631 37.6128C40.4631 38.3566 39.86 38.9597 39.1161 38.9597Z" fill="#13448F"/>
<path d="M26.4816 30.6942C26.4816 30.3773 26.2959 30.0863 26.0084 29.9528L23.3777 28.7305L26.0085 27.508C26.2959 27.3744 26.4816 27.0834 26.4816 26.7667V26.7454C26.4816 26.4647 26.3403 26.207 26.1039 26.0564C25.973 25.9728 25.8207 25.9286 25.6634 25.9286C25.5448 25.9286 25.4258 25.9547 25.3193 26.0042L21.1134 27.96C20.8261 28.0936 20.6406 28.3846 20.6406 28.7013V28.7598C20.6406 29.076 20.8261 29.3668 21.1135 29.5011L25.3198 31.4571C25.4286 31.5075 25.5444 31.533 25.664 31.533C25.8199 31.533 25.9718 31.4887 26.1039 31.4047C26.3404 31.2535 26.4817 30.996 26.4817 30.7156L26.4816 30.6942Z" fill="#13448F"/>
<path d="M30.6314 23.9357C30.478 23.7257 30.2312 23.6003 29.9712 23.6003H29.9503C29.5933 23.6003 29.2803 23.8287 29.1716 24.1681L26.4005 32.7543C26.3216 33.0023 26.366 33.2753 26.5192 33.4853C26.6726 33.6952 26.9194 33.8206 27.1794 33.8206H27.2004C27.5573 33.8206 27.87 33.5922 27.9787 33.2528L30.7494 24.6672C30.8291 24.4195 30.7849 24.1461 30.6314 23.9357Z" fill="#13448F"/>
<path d="M36.0369 27.9599L31.8309 26.0041C31.7248 25.9548 31.606 25.9287 31.4874 25.9287C31.3302 25.9287 31.1778 25.9728 31.047 26.0562C30.8102 26.2071 30.6689 26.4647 30.6689 26.7454V26.7667C30.6689 27.0831 30.8544 27.3742 31.1421 27.5083L33.7728 28.7305L31.142 29.9528C30.8546 30.0863 30.6689 30.3773 30.6689 30.6942V30.7156C30.6689 30.996 30.8102 31.2534 31.0469 31.4048C31.1785 31.4887 31.3305 31.533 31.4866 31.533C31.6061 31.533 31.7218 31.5075 31.8313 31.4569L36.0374 29.5009C36.3246 29.3669 36.51 29.0761 36.51 28.7598V28.7013C36.5098 28.3846 36.3243 28.0936 36.0369 27.9599Z" fill="#13448F"/>
</svg>
