<svg width="75" height="17" viewBox="0 0 75 17" fill="none" xmlns="http://www.w3.org/2000/svg">
<path d="M7.82311 1.20976V2.70986H4.83904V12.4202H3.0002V2.70986H0V1.20976H7.82311ZM11.5243 4.82291C11.793 4.37126 12.1479 4.02174 12.5888 3.77445C13.0405 3.51636 13.5728 3.38733 14.1857 3.38733V5.29068H13.718C12.9974 5.29068 12.449 5.47345 12.0727 5.8391C11.707 6.20475 11.5243 6.83917 11.5243 7.74246V12.4202H9.68543V3.5325H11.5243V4.82291ZM23.9249 3.5325V12.4202H22.0861V11.3717C21.7957 11.7374 21.4139 12.0277 20.9408 12.2428C20.4784 12.4471 19.9837 12.5492 19.4568 12.5492C18.7578 12.5492 18.1287 12.4041 17.5696 12.1137C17.0212 11.8234 16.5857 11.3932 16.2631 10.8233C15.9512 10.2534 15.7953 9.56516 15.7953 8.75865V3.5325H17.618V8.48444C17.618 9.28016 17.8169 9.8931 18.2148 10.3233C18.6126 10.7427 19.1557 10.9523 19.844 10.9523C20.5321 10.9523 21.0752 10.7427 21.4731 10.3233C21.8817 9.8931 22.0861 9.28016 22.0861 8.48444V3.5325H23.9249ZM29.5776 12.5654C28.8779 12.5654 28.2489 12.4417 27.6904 12.1944C27.1419 11.9363 26.7064 11.5922 26.3838 11.162C26.0612 10.7212 25.8888 10.2318 25.8677 9.6942H27.771C27.8033 10.0705 27.9807 10.3878 28.3033 10.6459C28.636 10.8932 29.0503 11.0169 29.5453 11.0169C30.0615 11.0169 30.4587 10.9201 30.739 10.7265C31.0293 10.5222 31.1745 10.2641 31.1745 9.95228C31.1745 9.61889 31.0132 9.3716 30.6906 9.2103C30.3781 9.049 29.878 8.87156 29.1905 8.678C28.5231 8.49523 27.9807 8.3178 27.5613 8.14571C27.1419 7.97362 26.776 7.7102 26.4645 7.35533C26.163 7.00047 26.0128 6.5327 26.0128 5.95201C26.0128 5.4789 26.152 5.04873 26.4322 4.6616C26.7115 4.26369 27.1097 3.95188 27.6258 3.72606C28.1521 3.50023 28.755 3.38733 29.4324 3.38733C30.4426 3.38733 31.2551 3.64541 31.8681 4.16157C32.4911 4.66695 32.8248 5.36054 32.8681 6.24235H31.0293C30.997 5.84444 30.8357 5.52729 30.5454 5.29068C30.2551 5.05407 29.8619 4.93582 29.3679 4.93582C28.884 4.93582 28.513 5.02725 28.2549 5.21003C27.9968 5.3928 27.8678 5.63475 27.8678 5.93588C27.8678 6.17249 27.9535 6.3714 28.1259 6.5327C28.2973 6.694 28.507 6.82304 28.755 6.91982C29.002 7.00581 29.3679 7.11872 29.8518 7.25855C30.497 7.43064 31.0233 7.60807 31.4326 7.79085C31.8519 7.96294 32.2118 8.22102 32.5133 8.56509C32.8137 8.90917 32.97 9.36625 32.981 9.93615C32.981 10.4415 32.8409 10.8932 32.5617 11.2911C32.2814 11.689 31.8842 12.0008 31.368 12.2266C30.862 12.4524 30.2651 12.5654 29.5776 12.5654ZM37.1124 5.0326V9.95228C37.1124 10.2857 37.188 10.5276 37.3382 10.6781C37.4995 10.818 37.7687 10.8878 38.1447 10.8878H39.2738V12.4202H37.8221C36.9944 12.4202 36.3603 12.2266 35.9187 11.8395C35.4782 11.4524 35.2574 10.8233 35.2574 9.95228V5.0326H34.209V3.5325H35.2574V1.32267H37.1124V3.5325H39.2738V5.0326H37.1124ZM42.8083 4.83903C43.1198 4.43044 43.5443 4.08626 44.0826 3.80671C44.6199 3.52715 45.2278 3.38733 45.9053 3.38733C46.6795 3.38733 47.3832 3.58088 48.0183 3.96801C48.6636 4.34434 49.1686 4.87664 49.5346 5.56489C49.8995 6.25314 50.083 7.04352 50.083 7.93602C50.083 8.82852 49.8995 9.62968 49.5346 10.3394C49.1686 11.0383 48.6636 11.5868 48.0183 11.9847C47.3832 12.3718 46.6795 12.5654 45.9053 12.5654C45.2278 12.5654 44.625 12.431 44.0987 12.1621C43.5715 11.8826 43.141 11.5384 42.8083 11.1298V16.6463H40.9695V3.5325H42.8083V4.83903ZM48.2119 7.93602C48.2119 7.32307 48.0829 6.79612 47.8238 6.35527C47.5768 5.90362 47.2441 5.56489 46.8247 5.33907C46.4154 5.10246 45.9749 4.98421 45.5021 4.98421C45.0393 4.98421 44.5988 5.10246 44.1794 5.33907C43.7701 5.57568 43.4374 5.91975 43.1793 6.3714C42.9313 6.82304 42.8083 7.35533 42.8083 7.96828C42.8083 8.58122 42.9313 9.11886 43.1793 9.58129C43.4374 10.0329 43.7701 10.377 44.1794 10.6136C44.5988 10.8502 45.0393 10.9685 45.5021 10.9685C45.9749 10.9685 46.4154 10.8502 46.8247 10.6136C47.2441 10.3663 47.5768 10.0115 47.8238 9.54903C48.0829 9.0866 48.2119 8.54896 48.2119 7.93602ZM52.8362 2.355C52.5035 2.355 52.2233 2.24209 51.9975 2.01626C51.7716 1.79044 51.6587 1.51089 51.6587 1.1775C51.6587 0.844108 51.7716 0.564555 51.9975 0.338733C52.2233 0.112911 52.5035 0 52.8362 0C53.1588 0 53.433 0.112911 53.6589 0.338733C53.8847 0.564555 53.9976 0.844108 53.9976 1.1775C53.9976 1.51089 53.8847 1.79044 53.6589 2.01626C53.433 2.24209 53.1588 2.355 52.8362 2.355ZM53.7395 3.5325V12.4202H51.9007V3.5325H53.7395ZM57.9928 0.483903V12.4202H56.154V0.483903H57.9928ZM64.2624 12.5654C63.4236 12.5654 62.6655 12.3771 61.988 12.0008C61.3106 11.6137 60.7783 11.076 60.3912 10.3878C60.004 9.68886 59.8105 8.88235 59.8105 7.96828C59.8105 7.06499 60.0091 6.26383 60.4073 5.56489C60.8045 4.86595 61.3479 4.32821 62.0364 3.95188C62.724 3.57554 63.4932 3.38733 64.343 3.38733C65.1919 3.38733 65.9611 3.57554 66.6496 3.95188C67.3372 4.32821 67.8806 4.86595 68.2788 5.56489C68.676 6.26383 68.8756 7.06499 68.8756 7.96828C68.8756 8.87156 68.6709 9.67273 68.2627 10.3717C67.8534 11.0706 67.2948 11.6137 66.5851 12.0008C65.8855 12.3771 65.1112 12.5654 64.2624 12.5654ZM64.2624 10.9685C64.7352 10.9685 65.1757 10.8556 65.585 10.6297C66.0044 10.4039 66.3432 10.0652 66.6013 9.61355C66.8593 9.16191 66.9884 8.61348 66.9884 7.96828C66.9884 7.32307 66.8644 6.77999 66.6174 6.33914C66.3694 5.88749 66.0417 5.54876 65.6334 5.32294C65.2241 5.09712 64.7836 4.98421 64.3108 4.98421C63.837 4.98421 63.3964 5.09712 62.9881 5.32294C62.5899 5.54876 62.2723 5.88749 62.0364 6.33914C61.7995 6.77999 61.6816 7.32307 61.6816 7.96828C61.6816 8.9253 61.9235 9.66728 62.4074 10.1942C62.9014 10.7104 63.5204 10.9685 64.2624 10.9685ZM72.8386 5.0326V9.95228C72.8386 10.2857 72.9142 10.5276 73.0644 10.6781C73.2257 10.818 73.4949 10.8878 73.8709 10.8878H75V12.4202H73.5483C72.7206 12.4202 72.0855 12.2266 71.6449 11.8395C71.2044 11.4524 70.9836 10.8233 70.9836 9.95228V5.0326H69.9351V3.5325H70.9836V1.32267H72.8386V3.5325H75V5.0326H72.8386Z" fill="#545454"/>
</svg>
