<svg width="45" height="45" viewBox="0 0 45 45" fill="none" xmlns="http://www.w3.org/2000/svg">
<path d="M37.8176 18.3015H7.18242C4.08331 18.3015 1.5705 15.7678 1.5705 12.6896V7.18242C1.5705 4.08331 4.10425 1.5705 7.18242 1.5705H37.8176C40.9167 1.5705 43.4295 4.10425 43.4295 7.18242V12.6896C43.4295 15.7678 40.8958 18.3015 37.8176 18.3015Z" stroke="#13448F" stroke-width="3.125" stroke-linecap="round" stroke-linejoin="round"/>
<path d="M37.8176 43.4295H7.18242C4.08331 43.4295 1.5705 40.8958 1.5705 37.8176V32.3104C1.5705 29.2113 4.10425 26.6984 7.18242 26.6984H37.8176C40.9167 26.6984 43.4295 29.2322 43.4295 32.3104V37.8176C43.4295 40.8958 40.8958 43.4295 37.8176 43.4295Z" stroke="#13448F" stroke-width="3.125" stroke-linecap="round" stroke-linejoin="round"/>
<path d="M9.92603 7.83199V12.02" stroke="#13448F" stroke-width="3.125" stroke-linecap="round" stroke-linejoin="round"/>
<path d="M18.302 7.83199V12.02" stroke="#13448F" stroke-width="3.125" stroke-linecap="round" stroke-linejoin="round"/>
<path d="M9.92603 32.9599V37.1479" stroke="#13448F" stroke-width="3.125" stroke-linecap="round" stroke-linejoin="round"/>
<path d="M18.302 32.9599V37.1479" stroke="#13448F" stroke-width="3.125" stroke-linecap="round" stroke-linejoin="round"/>
<path d="M26.678 9.92603H35.054" stroke="#13448F" stroke-width="3.125" stroke-linecap="round" stroke-linejoin="round"/>
<path d="M26.678 35.054H35.054" stroke="#13448F" stroke-width="3.125" stroke-linecap="round" stroke-linejoin="round"/>
</svg>
