<svg width="58" height="58" viewBox="0 0 58 58" fill="none" xmlns="http://www.w3.org/2000/svg">
<rect x="0.5" y="0.5" width="57" height="57" rx="11.5" fill="#F7F7FD"/>
<rect x="0.5" y="0.5" width="57" height="57" rx="11.5" stroke="#D9D8D8"/>
<path fill-rule="evenodd" clip-rule="evenodd" d="M34.6875 29H29V26.8125C29 26.5706 28.8044 26.375 28.5625 26.375C28.3206 26.375 28.125 26.5706 28.125 26.8125V29H22.4375C22.1956 29 22 29.1956 22 29.4375V32.0625C22 32.3044 22.1956 32.5 22.4375 32.5C22.6794 32.5 22.875 32.3044 22.875 32.0625V29.875H34.25V32.0625C34.25 32.3044 34.4456 32.5 34.6875 32.5C34.9294 32.5 35.125 32.3044 35.125 32.0625V29.4375C35.125 29.1956 34.9294 29 34.6875 29Z" fill="#13448F"/>
<path fill-rule="evenodd" clip-rule="evenodd" d="M39.5 33.8125C39.5 33.5706 39.3044 33.375 39.0625 33.375H30.3125C30.0706 33.375 29.875 33.5706 29.875 33.8125V38.625H39.5V33.8125Z" fill="#13448F"/>
<path fill-rule="evenodd" clip-rule="evenodd" d="M30.75 41.25H38.625C39.5901 41.25 40.375 40.4651 40.375 39.5H29C29 40.4651 29.7849 41.25 30.75 41.25Z" fill="#13448F"/>
<path fill-rule="evenodd" clip-rule="evenodd" d="M27.25 33.8125C27.25 33.5706 27.0544 33.375 26.8125 33.375H18.0625C17.8206 33.375 17.625 33.5706 17.625 33.8125V38.625H27.25V33.8125Z" fill="#13448F"/>
<path fill-rule="evenodd" clip-rule="evenodd" d="M18.5 41.25H26.375C27.3401 41.25 28.125 40.4651 28.125 39.5H16.75C16.75 40.4651 17.5349 41.25 18.5 41.25Z" fill="#13448F"/>
<path fill-rule="evenodd" clip-rule="evenodd" d="M30.8957 25.5H25.6457C24.1179 25.5 22.875 24.2571 22.875 22.7293C22.875 21.3398 23.9031 20.1861 25.2379 19.9879C25.4361 18.6531 26.5898 17.625 27.9793 17.625C28.9147 17.625 29.7674 18.0861 30.2784 18.8487C30.4814 18.8111 30.6874 18.7918 30.8957 18.7918C32.745 18.7918 34.25 20.2959 34.25 22.1457C34.25 23.9954 32.745 25.5 30.8957 25.5Z" fill="#13448F"/>
</svg>
