<svg width="42" height="42" viewBox="0 0 42 42" fill="none" xmlns="http://www.w3.org/2000/svg">
<rect x="0.5" y="0.5" width="41" height="41" rx="7.5" fill="#F7F7FD"/>
<rect x="0.5" y="0.5" width="41" height="41" rx="7.5" stroke="#D9D8D8"/>
<g clip-path="url(#clip0_1_362)">
<path d="M8.16784 32.6649C8.01386 32.6643 7.86127 32.6942 7.71889 32.7528C7.57651 32.8115 7.44715 32.8977 7.33826 33.0066C7.22938 33.1155 7.14312 33.2449 7.08448 33.3873C7.02583 33.5296 6.99595 33.6822 6.99656 33.8362C6.99709 33.9895 7.02781 34.1411 7.08696 34.2825C7.14612 34.4239 7.23255 34.5522 7.34132 34.6602C7.45009 34.7682 7.57907 34.8536 7.72089 34.9118C7.86271 34.9699 8.01458 34.9995 8.16784 34.9988H33.8322C33.9855 34.9994 34.1373 34.9698 34.2791 34.9117C34.4209 34.8536 34.5499 34.7682 34.6587 34.6602C34.7675 34.5522 34.8539 34.4239 34.913 34.2825C34.9722 34.1411 35.0029 33.9895 35.0034 33.8362C35.004 33.6822 34.9742 33.5296 34.9155 33.3873C34.8569 33.2449 34.7706 33.1155 34.6618 33.0066C34.5529 32.8978 34.4235 32.8115 34.2811 32.7529C34.1388 32.6942 33.9862 32.6643 33.8322 32.6649H8.16784Z" fill="#13448F"/>
<path d="M11.4987 24.4999C10.4054 24.4999 9.49997 25.7076 9.49997 27.166V33.3924C9.50036 33.5384 9.5223 33.6828 9.56455 33.8175C9.60679 33.9522 9.66851 34.0744 9.74618 34.1772C9.82385 34.2801 9.91595 34.3615 10.0172 34.4169C10.1185 34.4722 10.2269 34.5004 10.3364 34.4999H13.6697C13.8897 34.4988 14.1004 34.3818 14.2559 34.1744C14.4115 33.9669 14.4992 33.6858 14.5 33.3924V27.166C14.5 25.7076 13.5945 24.4999 12.5012 24.4999H11.4987Z" fill="#13448F"/>
<path d="M20.5012 20.4999C19.4065 20.4999 18.5 21.7267 18.5 23.2082V33.3749C18.5008 33.6729 18.5886 33.9585 18.7443 34.1692C18.9 34.38 19.111 34.4988 19.3312 34.4999H22.6687C22.8889 34.4988 23.0999 34.38 23.2556 34.1692C23.4114 33.9585 23.4992 33.6729 23.5 33.3749V23.2082C23.5 21.7267 22.5934 20.4999 21.4987 20.4999H20.5012Z" fill="#13448F"/>
<path d="M29.4987 17.4999C28.4054 17.4999 27.5 18.6997 27.5 20.1485V33.3997C27.5007 33.6912 27.5885 33.9704 27.744 34.1765C27.8996 34.3826 28.1103 34.4988 28.3302 34.4999H31.6636C31.773 34.5004 31.8814 34.4724 31.9827 34.4174C32.084 34.3624 32.1761 34.2815 32.2537 34.1794C32.3314 34.0772 32.3931 33.9558 32.4354 33.822C32.4776 33.6882 32.4996 33.5447 32.5 33.3997V20.1485C32.5 18.6997 31.5884 17.4999 30.4951 17.4999H29.4987Z" fill="#13448F"/>
<path d="M27.3739 7.0011C27.0657 7.0017 26.7702 7.12425 26.5521 7.342C26.3339 7.55974 26.2108 7.85497 26.2095 8.16321C26.2089 8.31661 26.2386 8.46862 26.2968 8.61055C26.355 8.75247 26.4407 8.88152 26.5488 8.99031C26.657 9.0991 26.7855 9.18549 26.9271 9.24454C27.0687 9.30359 27.2205 9.33413 27.3739 9.33443H28.5793C21.981 15.0073 15.0721 18.5313 7.95304 19.8504C7.64956 19.9079 7.38127 20.0834 7.207 20.3384C7.03272 20.5934 6.96668 20.9071 7.02335 21.2107C7.07884 21.514 7.25211 21.783 7.5053 21.9589C7.75849 22.1348 8.07102 22.2033 8.37459 22.1495C16.0398 20.7293 23.415 16.9204 30.3362 10.9135V12.2876C30.3356 12.4408 30.3652 12.5926 30.4232 12.7344C30.4813 12.8761 30.5667 13.0051 30.6747 13.1139C30.7826 13.2226 30.9108 13.309 31.0522 13.3682C31.1935 13.4274 31.3451 13.4582 31.4983 13.4588C31.6523 13.4594 31.8048 13.4295 31.9472 13.3709C32.0896 13.3122 32.2189 13.226 32.3278 13.1171C32.4367 13.0082 32.5229 12.8788 32.5816 12.7365C32.6402 12.5941 32.6701 12.4415 32.6695 12.2876V8.85136C32.6697 7.84442 31.8171 7.00088 30.8101 7.0011H27.3739Z" fill="#13448F"/>
</g>
<defs>
<clipPath id="clip0_1_362">
<rect width="28" height="28" fill="white" transform="translate(7 7)"/>
</clipPath>
</defs>
</svg>
