<svg width="58" height="58" viewBox="0 0 58 58" fill="none" xmlns="http://www.w3.org/2000/svg">
<rect x="0.5" y="0.5" width="57" height="57" rx="11.5" fill="#F7F7FD"/>
<rect x="0.5" y="0.5" width="57" height="57" rx="11.5" stroke="#D9D8D8"/>
<g clip-path="url(#clip0_1_312)">
<path d="M40.375 15H17.625C16.1753 15 15 16.1753 15 17.625V40.375C15 41.8247 16.1753 43 17.625 43H40.375C41.8247 43 43 41.8247 43 40.375V17.625C43 16.1753 41.8247 15 40.375 15ZM39.3176 16.9141C39.8913 16.9141 40.3566 17.3793 40.3566 17.9531C40.3566 18.5269 39.8913 18.9922 39.3176 18.9922C38.7438 18.9922 38.2785 18.5269 38.2785 17.9531C38.2785 17.3793 38.7438 16.9141 39.3176 16.9141ZM35.4621 16.9141C36.0359 16.9141 36.5012 17.3793 36.5012 17.9531C36.5012 18.5269 36.0359 18.9922 35.4621 18.9922C34.8883 18.9922 34.423 18.5269 34.423 17.9531C34.423 17.3793 34.8883 16.9141 35.4621 16.9141ZM31.6066 16.9141C32.1804 16.9141 32.6457 17.3793 32.6457 17.9531C32.6457 18.5269 32.1804 18.9922 31.6066 18.9922C31.0328 18.9922 30.5676 18.5269 30.5676 17.9531C30.5676 17.3793 31.0328 16.9141 31.6066 16.9141ZM40.8125 40.375C40.8125 40.616 40.6164 40.8125 40.375 40.8125H17.625C17.3836 40.8125 17.1875 40.616 17.1875 40.375V20.6875H40.8125V40.375Z" fill="#13448F"/>
<path d="M28.5625 25.5H20.25V27.25H28.5625V25.5Z" fill="#13448F"/>
<path d="M38.1875 34.25H20.25V36H38.1875V34.25Z" fill="#13448F"/>
<path d="M38.1875 25.5H31.625V32.0625H38.1875V25.5Z" fill="#13448F"/>
<path d="M27.5257 31.625H28.5625V29.875H20.25V31.625H26.6507H27.5257Z" fill="#13448F"/>
</g>
<defs>
<clipPath id="clip0_1_312">
<rect width="28" height="28" fill="white" transform="translate(15 15)"/>
</clipPath>
</defs>
</svg>
