<svg width="25" height="25" viewBox="0 0 25 25" fill="none" xmlns="http://www.w3.org/2000/svg">
<path d="M6.25 9.375C7.97589 9.375 9.375 7.97589 9.375 6.25M6.25 9.375C4.52411 9.375 3.125 7.97589 3.125 6.25M6.25 9.375V12.5M9.375 6.25C9.375 4.52411 7.97589 3.125 6.25 3.125M9.375 6.25H12.5M6.25 3.125C4.52411 3.125 3.125 4.52411 3.125 6.25M6.25 3.125V0M3.125 6.25H0M2.08333 2.08333L4.16667 4.16667M8.33333 8.33333L10.4167 10.4167M10.4167 2.08333L8.33333 4.16667M4.16667 8.33333L2.08333 10.4167M18.75 12.5C20.4759 12.5 21.875 11.1009 21.875 9.375M18.75 12.5C17.0241 12.5 15.625 11.1009 15.625 9.375M18.75 12.5V15.625M21.875 9.375C21.875 7.64911 20.4759 6.25 18.75 6.25M21.875 9.375H25M18.75 6.25C17.0241 6.25 15.625 7.64911 15.625 9.375M18.75 6.25V3.125M15.625 9.375H12.5M14.5833 5.20833L16.6667 7.29167M20.8333 11.4583L22.9167 13.5417M22.9167 5.20833L20.8333 7.29167M16.6667 11.4583L14.5833 13.5417M9.375 21.875C11.1009 21.875 12.5 20.4759 12.5 18.75M9.375 21.875C7.64911 21.875 6.25 20.4759 6.25 18.75M9.375 21.875V25M12.5 18.75C12.5 17.0241 11.1009 15.625 9.375 15.625M12.5 18.75H15.625M9.375 15.625C7.64911 15.625 6.25 17.0241 6.25 18.75M9.375 15.625V12.5M6.25 18.75H3.125M5.20833 14.5833L7.29167 16.6667M11.4583 20.8333L13.5417 22.9167M13.5417 14.5833L11.4583 16.6667M7.29167 20.8333L5.20833 22.9167" stroke="#13448F" stroke-width="2.33333"/>
</svg>
