<svg width="58" height="58" viewBox="0 0 58 58" fill="none" xmlns="http://www.w3.org/2000/svg">
<rect x="0.5" y="0.5" width="57" height="57" rx="11.5" fill="#F7F7FD"/>
<rect x="0.5" y="0.5" width="57" height="57" rx="11.5" stroke="#D9D8D8"/>
<path d="M31.625 22C32.15 22 32.5 21.65 32.5 21.125V19.375C32.5 17.8875 31.3625 16.75 29.875 16.75H21.125C19.6375 16.75 18.5 17.8875 18.5 19.375V38.625C18.5 40.1125 19.6375 41.25 21.125 41.25H29.875C31.3625 41.25 32.5 40.1125 32.5 38.625V35.125C32.5 34.6 32.15 34.25 31.625 34.25H20.25V22H31.625ZM24.625 36.875H26.375C26.9 36.875 27.25 37.225 27.25 37.75C27.25 38.275 26.9 38.625 26.375 38.625H24.625C24.1 38.625 23.75 38.275 23.75 37.75C23.75 37.225 24.1 36.875 24.625 36.875Z" fill="#13448F"/>
<path d="M27.25 31.625C26.9875 31.625 26.8125 31.5375 26.6375 31.3625L24.0125 28.7375C23.6625 28.3875 23.6625 27.8625 24.0125 27.5125L26.6375 24.8875C26.9875 24.5375 27.5125 24.5375 27.8625 24.8875C28.2125 25.2375 28.2125 25.7625 27.8625 26.1125L25.85 28.125L27.8625 30.1375C28.2125 30.4875 28.2125 31.0125 27.8625 31.3625C27.6875 31.5375 27.5125 31.625 27.25 31.625Z" fill="#13448F"/>
<path d="M36 31.625C35.7375 31.625 35.5625 31.5375 35.3875 31.3625C35.0375 31.0125 35.0375 30.4875 35.3875 30.1375L37.4 28.125L35.3875 26.1125C35.0375 25.7625 35.0375 25.2375 35.3875 24.8875C35.7375 24.5375 36.2625 24.5375 36.6125 24.8875L39.2375 27.5125C39.5875 27.8625 39.5875 28.3875 39.2375 28.7375L36.6125 31.3625C36.4375 31.5375 36.2625 31.625 36 31.625Z" fill="#13448F"/>
<path d="M29.875 32.5C29.7875 32.5 29.6125 32.5 29.525 32.4125C29.0875 32.2375 28.9125 31.7125 29.175 31.275L32.675 24.275C32.85 23.8375 33.375 23.6625 33.8125 23.925C34.25 24.1 34.425 24.625 34.1625 25.0625L30.6625 32.0625C30.4875 32.325 30.225 32.5 29.875 32.5Z" fill="#13448F"/>
</svg>
