<svg width="36" height="19" viewBox="0 0 36 19" fill="none" xmlns="http://www.w3.org/2000/svg">
<path d="M0 14.8302V12.1158L8.06899 0.567545H12.0912V11.8197H14.2626V14.8302H12.0912V18.3342H8.63654V14.8302H0ZM8.85863 4.26892L3.80008 11.8197H8.85863V4.26892ZM18.3866 18.5069C17.7615 18.5069 17.2433 18.3177 16.832 17.9393C16.4372 17.5445 16.2398 17.0592 16.2398 16.4835C16.2398 15.9077 16.4372 15.4306 16.832 15.0523C17.2433 14.6575 17.7615 14.46 18.3866 14.46C18.9953 14.46 19.497 14.6575 19.8918 15.0523C20.2866 15.4306 20.484 15.9077 20.484 16.4835C20.484 17.0592 20.2866 17.5445 19.8918 17.9393C19.497 18.3177 18.9953 18.5069 18.3866 18.5069ZM25.8829 8.80928C24.2378 7.95385 23.4153 6.62958 23.4153 4.83647C23.4153 3.94814 23.6374 3.14206 24.0816 2.41823C24.5422 1.67796 25.2249 1.09396 26.1297 0.666249C27.0509 0.222083 28.1695 0 29.4856 0C30.8016 0 31.912 0.222083 32.8168 0.666249C33.7381 1.09396 34.4207 1.67796 34.8649 2.41823C35.3255 3.14206 35.5558 3.94814 35.5558 4.83647C35.5558 5.74125 35.3337 6.5391 34.8896 7.23003C34.4454 7.9045 33.8532 8.43092 33.1129 8.80928C34.0177 9.20409 34.7251 9.77986 35.235 10.5366C35.745 11.2933 36 12.1899 36 13.2263C36 14.3449 35.7121 15.3237 35.1363 16.1627C34.577 16.9852 33.8039 17.6186 32.8168 18.0627C31.8298 18.5069 30.7194 18.729 29.4856 18.729C28.2518 18.729 27.1414 18.5069 26.1543 18.0627C25.1837 17.6186 24.4106 16.9852 23.8348 16.1627C23.2755 15.3237 22.9958 14.3449 22.9958 13.2263C22.9958 12.1899 23.2508 11.2933 23.7608 10.5366C24.2708 9.76341 24.9781 9.18764 25.8829 8.80928ZM32.1999 5.32999C32.1999 4.52391 31.9532 3.89878 31.4596 3.45462C30.9826 3.01045 30.3246 2.78837 29.4856 2.78837C28.663 2.78837 28.005 3.01045 27.5115 3.45462C27.0344 3.89878 26.7959 4.53213 26.7959 5.35466C26.7959 6.09494 27.0427 6.68716 27.5362 7.13132C28.0462 7.57549 28.696 7.79757 29.4856 7.79757C30.2752 7.79757 30.925 7.57549 31.435 7.13132C31.9449 6.67071 32.1999 6.07026 32.1999 5.32999ZM29.4856 10.3145C28.5479 10.3145 27.7829 10.553 27.1907 11.0301C26.615 11.5072 26.3271 12.1899 26.3271 13.0782C26.3271 13.9007 26.6067 14.5752 27.1661 15.1016C27.7418 15.6116 28.515 15.8666 29.4856 15.8666C30.4562 15.8666 31.2211 15.6034 31.7804 15.0769C32.3397 14.5505 32.6194 13.8843 32.6194 13.0782C32.6194 12.2063 32.3315 11.5318 31.7558 11.0548C31.18 10.5613 30.4233 10.3145 29.4856 10.3145Z" fill="#2B5068"/>
</svg>
