<svg width="64" height="12" viewBox="0 0 64 12" fill="none" xmlns="http://www.w3.org/2000/svg">
<path d="M3.94125 11.9679C3.19355 11.9679 2.52066 11.8398 1.92256 11.5834C1.32446 11.3164 0.85444 10.9426 0.512684 10.4619C0.170929 9.9813 0 9.42055 0 8.7797H1.9546C1.99736 9.26034 2.18421 9.65557 2.51535 9.96528C2.85711 10.275 3.33244 10.4299 3.94125 10.4299C4.57139 10.4299 5.06274 10.2804 5.41521 9.9813C5.76768 9.67159 5.94392 9.27636 5.94392 8.79572C5.94392 8.42192 5.83177 8.11752 5.60747 7.8825C5.39389 7.64749 5.12152 7.46595 4.79038 7.33778C4.46995 7.20961 4.02135 7.07072 3.44459 6.92122C2.71832 6.72897 2.12553 6.53671 1.66622 6.34446C1.21762 6.14148 0.833111 5.83177 0.512684 5.41522C0.192257 4.99866 0.0320404 4.44322 0.0320404 3.749C0.0320404 3.10814 0.192257 2.5474 0.512684 2.06676C0.833111 1.58611 1.2817 1.21762 1.85847 0.961282C2.43524 0.70494 3.10283 0.576769 3.86114 0.576769C4.93988 0.576769 5.82106 0.849132 6.50467 1.39386C7.1989 1.92787 7.5834 2.66485 7.6582 3.6048H5.63951C5.60747 3.19896 5.41522 2.8518 5.06275 2.56342C4.71028 2.27503 4.24566 2.13084 3.66889 2.13084C3.14549 2.13084 2.71832 2.26432 2.38718 2.53137C2.05604 2.79843 1.89052 3.18294 1.89052 3.68491C1.89052 4.02667 1.99196 4.30974 2.19493 4.53404C2.40851 4.74763 2.67556 4.91856 2.99599 5.04673C3.31642 5.1749 3.7543 5.31378 4.30974 5.46328C5.04673 5.66625 5.64482 5.86912 6.10414 6.07209C6.57406 6.27506 6.96929 6.59008 7.28971 7.01735C7.62085 7.43391 7.78638 7.99465 7.78638 8.69959C7.78638 9.26565 7.63147 9.79976 7.32175 10.3017C7.02266 10.8037 6.57947 11.2096 5.99199 11.5194C5.41522 11.8185 4.7316 11.9679 3.94125 11.9679ZM18.032 7.22563C18.032 7.55677 18.011 7.85577 17.9679 8.12282H11.2233C11.2766 8.82776 11.5383 9.39382 12.0083 9.82109C12.4782 10.2484 13.055 10.4619 13.7386 10.4619C14.7212 10.4619 15.4155 10.0507 15.8211 9.2283H17.7917C17.5254 10.0401 17.0387 10.7076 16.3338 11.231C15.6398 11.7436 14.7746 12 13.7386 12C12.8948 12 12.1365 11.813 11.4636 11.4392C10.8013 11.0547 10.278 10.5207 9.89348 9.83711C9.51958 9.14288 9.33273 8.34182 9.33273 7.43391C9.33273 6.526 9.51428 5.73034 9.87746 5.04673C10.2513 4.3525 10.7692 3.81839 11.4315 3.44459C12.1044 3.07079 12.8735 2.88384 13.7386 2.88384C14.5717 2.88384 15.3144 3.06538 15.9653 3.42857C16.6171 3.79175 17.1248 4.30444 17.4873 4.96662C17.8508 5.61819 18.032 6.37119 18.032 7.22563ZM16.1255 6.64886C16.1155 5.97596 15.8752 5.43655 15.4045 5.0307C14.9348 4.62486 14.3527 4.42189 13.6585 4.42189C13.0283 4.42189 12.4889 4.62486 12.0403 5.0307C11.5917 5.42593 11.3247 5.96525 11.2393 6.64886H16.1255ZM21.6559 4.30974C21.9232 3.86115 22.2757 3.51398 22.7133 3.26836C23.1619 3.01201 23.6906 2.88384 24.2994 2.88384V4.77436H23.8348C23.1198 4.77436 22.5751 4.9559 22.2006 5.31909C21.8381 5.68227 21.6559 6.31241 21.6559 7.20961V11.8558H19.8294V3.02804H21.6559V4.30974ZM25.3698 7.43391C25.3698 6.526 25.551 5.73034 25.9145 5.04673C26.288 4.3525 26.8007 3.81839 27.4526 3.44459C28.1045 3.07079 28.8514 2.88384 29.6956 2.88384C30.764 2.88384 31.6452 3.14019 32.3391 3.65287C33.044 4.15484 33.5197 4.8758 33.765 5.81575H31.7944C31.6342 5.37787 31.3778 5.03601 31.0253 4.79038C30.6729 4.54476 30.2293 4.42189 29.6956 4.42189C28.9476 4.42189 28.3498 4.68895 27.9012 5.22296C27.4636 5.74636 27.2443 6.48334 27.2443 7.43391C27.2443 8.38447 27.4636 9.12686 27.9012 9.66087C28.3498 10.1949 28.9476 10.4619 29.6956 10.4619C30.753 10.4619 31.4529 9.99732 31.7944 9.06808H33.765C33.5087 9.96528 33.028 10.6809 32.3231 11.2149C31.6181 11.7383 30.742 12 29.6956 12C28.8514 12 28.1045 11.813 27.4526 11.4392C26.8007 11.0547 26.288 10.5207 25.9145 9.83711C25.551 9.14288 25.3698 8.34182 25.3698 7.43391ZM40.1515 2.88384C40.8244 2.88384 41.4222 3.02804 41.9459 3.31642C42.4796 3.6048 42.8962 4.03207 43.1956 4.59813C43.505 5.16418 43.6602 5.84779 43.6602 6.64886V11.8558H41.8498V6.92122C41.8498 6.13087 41.6515 5.52737 41.257 5.11081C40.8614 4.68354 40.3217 4.46996 39.6388 4.46996C38.9549 4.46996 38.4102 4.68354 38.0046 5.11081C37.6091 5.52737 37.4119 6.13087 37.4119 6.92122V11.8558H35.5854V0H37.4119V4.0534C37.7213 3.6796 38.1108 3.39122 38.5814 3.18825C39.0621 2.98528 39.5847 2.88384 40.1515 2.88384ZM54.0801 7.22563C54.0801 7.55677 54.059 7.85577 54.016 8.12282H47.271C47.3251 8.82776 47.5864 9.39382 48.056 9.82109C48.5267 10.2484 49.1034 10.4619 49.7863 10.4619C50.7696 10.4619 51.4636 10.0507 51.8691 9.2283H53.8397C53.5734 10.0401 53.0867 10.7076 52.3818 11.231C51.6879 11.7436 50.8227 12 49.7863 12C48.9432 12 48.1842 11.813 47.5113 11.4392C46.8494 11.0547 46.3257 10.5207 45.9412 9.83711C45.5677 9.14288 45.3805 8.34182 45.3805 7.43391C45.3805 6.526 45.5627 5.73034 45.9252 5.04673C46.2997 4.3525 46.8174 3.81839 47.4793 3.44459C48.1522 3.07079 48.9212 2.88384 49.7863 2.88384C50.6194 2.88384 51.3624 3.06538 52.0133 3.42857C52.6652 3.79175 53.1729 4.30444 53.5353 4.96662C53.8988 5.61819 54.0801 6.37119 54.0801 7.22563ZM52.1735 6.64886C52.1635 5.97596 51.9232 5.43655 51.4526 5.0307C50.9829 4.62486 50.4012 4.42189 49.7062 4.42189C49.0764 4.42189 48.5367 4.62486 48.0881 5.0307C47.6395 5.42593 47.3731 5.96525 47.287 6.64886H52.1735ZM60.3314 2.88384C61.0263 2.88384 61.6452 3.02804 62.1899 3.31642C62.7456 3.6048 63.1782 4.03207 63.4876 4.59813C63.798 5.16418 63.9522 5.84779 63.9522 6.64886V11.8558H62.1418V6.92122C62.1418 6.13087 61.9446 5.52737 61.549 5.11081C61.1545 4.68354 60.6148 4.46996 59.9309 4.46996C59.248 4.46996 58.7032 4.68354 58.2967 5.11081C57.9022 5.52737 57.7039 6.13087 57.7039 6.92122V11.8558H55.8775V3.02804H57.7039V4.03738C58.0033 3.6742 58.3828 3.39122 58.8414 3.18825C59.312 2.98528 59.8087 2.88384 60.3314 2.88384Z" fill="#545454"/>
</svg>
