<svg width="36" height="36" viewBox="0 0 36 36" fill="none" xmlns="http://www.w3.org/2000/svg">
<path d="M4.5 33H31.5" stroke="white" stroke-width="2" stroke-linecap="round" stroke-linejoin="round"/>
<path d="M4.5 16.5C4.5 15.0855 4.5 14.379 4.9395 13.9395C5.379 13.5 6.0855 13.5 7.5 13.5C8.9145 13.5 9.621 13.5 10.0605 13.9395C10.5 14.379 10.5 15.0855 10.5 16.5V25.5C10.5 26.9145 10.5 27.621 10.0605 28.0605C9.621 28.5 8.9145 28.5 7.5 28.5C6.0855 28.5 5.379 28.5 4.9395 28.0605C4.5 27.621 4.5 26.9145 4.5 25.5V16.5ZM15 10.5C15 9.0855 15 8.379 15.4395 7.9395C15.879 7.5 16.5855 7.5 18 7.5C19.4145 7.5 20.121 7.5 20.5605 7.9395C21 8.379 21 9.0855 21 10.5V25.5C21 26.9145 21 27.621 20.5605 28.0605C20.121 28.5 19.4145 28.5 18 28.5C16.5855 28.5 15.879 28.5 15.4395 28.0605C15 27.621 15 26.9145 15 25.5V10.5ZM25.5 6C25.5 4.5855 25.5 3.879 25.9395 3.4395C26.379 3 27.0855 3 28.5 3C29.9145 3 30.621 3 31.0605 3.4395C31.5 3.879 31.5 4.5855 31.5 6V25.5C31.5 26.9145 31.5 27.621 31.0605 28.0605C30.621 28.5 29.9145 28.5 28.5 28.5C27.0855 28.5 26.379 28.5 25.9395 28.0605C25.5 27.621 25.5 26.9145 25.5 25.5V6Z" stroke="white" stroke-width="2"/>
</svg>
