<svg width="58" height="58" viewBox="0 0 58 58" fill="none" xmlns="http://www.w3.org/2000/svg">
<rect x="0.5" y="0.5" width="57" height="57" rx="11.5" fill="#F7F7FD"/>
<rect x="0.5" y="0.5" width="57" height="57" rx="11.5" stroke="#D9D8D8"/>
<g clip-path="url(#clip0_1_279)">
<path d="M27.25 26.375C32.0825 26.375 36 24.4162 36 22C36 19.5838 32.0825 17.625 27.25 17.625C22.4175 17.625 18.5 19.5838 18.5 22C18.5 24.4162 22.4175 26.375 27.25 26.375Z" stroke="#13448F" stroke-width="2" stroke-miterlimit="10" stroke-linecap="round" stroke-linejoin="round"/>
<path d="M27.25 27.25C32.5657 27.25 36.875 24.8995 36.875 22C36.875 19.1005 32.5657 16.75 27.25 16.75C21.9343 16.75 17.625 19.1005 17.625 22C17.625 24.8995 21.9343 27.25 27.25 27.25Z" fill="#13448F"/>
<path d="M27.25 36C23.05 36 19.55 34.775 17.625 32.85V36C17.625 38.975 21.825 41.25 27.25 41.25C28.0375 41.25 28.825 41.1625 29.6125 41.075C28.3 39.7625 27.5125 37.925 27.25 36Z" fill="#13448F"/>
<path d="M17.625 25.85V29C17.625 31.975 21.825 34.25 27.25 34.25C27.25 34.25 27.25 34.25 27.3375 34.25C27.5125 32.15 28.5625 30.225 29.9625 28.825C29.0875 28.9125 28.2125 29 27.25 29C23.05 29 19.55 27.775 17.625 25.85Z" fill="#13448F"/>
<path d="M42.7375 33.2875C42.65 32.85 42.125 32.5875 41.6875 32.675C41.075 32.85 40.6375 32.675 40.55 32.5C40.4625 32.325 40.55 31.8875 40.9875 31.3625C41.3375 31.0125 41.3375 30.4875 40.9875 30.1375C40.1125 29.2625 39.0625 28.65 37.8375 28.3C37.4 28.2125 36.875 28.475 36.7875 28.9125C36.6125 29.525 36.2625 29.7875 36 29.7875C35.7375 29.7875 35.475 29.4375 35.2125 28.9125C35.0375 28.475 34.6 28.2125 34.1625 28.3C32.9375 28.65 31.8875 29.2625 31.0125 30.1375C30.6625 30.4875 30.6625 31.0125 31.0125 31.3625C31.45 31.8 31.5375 32.2375 31.45 32.5C31.3625 32.675 30.925 32.85 30.3125 32.675C29.875 32.5875 29.35 32.85 29.2625 33.2875C29.0875 33.9 29 34.5125 29 35.125C29 35.7375 29.0875 36.35 29.2625 36.9625C29.35 37.4 29.875 37.6625 30.3125 37.575C30.925 37.4 31.3625 37.575 31.45 37.75C31.5375 37.925 31.45 38.3625 31.0125 38.8875C30.6625 39.2375 30.6625 39.7625 31.0125 40.1125C31.8875 40.9875 32.9375 41.6 34.1625 41.95C34.6 42.0375 35.125 41.775 35.2125 41.3375C35.3875 40.725 35.7375 40.4625 36 40.4625C36.2625 40.4625 36.525 40.8125 36.7875 41.3375C36.875 41.6875 37.225 41.95 37.6625 41.95C37.75 41.95 37.8375 41.95 37.925 41.95C39.15 41.6 40.2 40.9875 41.075 40.1125C41.425 39.7625 41.425 39.2375 41.075 38.8875C40.6375 38.45 40.55 38.0125 40.6375 37.75C40.725 37.575 41.1625 37.4 41.775 37.575C42.2125 37.6625 42.7375 37.4 42.825 36.9625C43 36.35 43.0875 35.7375 43.0875 35.125C43.0875 34.5125 42.9125 33.9 42.7375 33.2875ZM36 37.75C34.5125 37.75 33.375 36.6125 33.375 35.125C33.375 33.6375 34.5125 32.5 36 32.5C37.4875 32.5 38.625 33.6375 38.625 35.125C38.625 36.6125 37.4875 37.75 36 37.75Z" fill="#13448F"/>
</g>
<defs>
<clipPath id="clip0_1_279">
<rect width="28" height="28" fill="white" transform="translate(15 15)"/>
</clipPath>
</defs>
</svg>
