<svg width="42" height="42" viewBox="0 0 42 42" fill="none" xmlns="http://www.w3.org/2000/svg">
<rect x="0.5" y="0.5" width="41" height="41" rx="7.5" fill="#F7F7FD"/>
<rect x="0.5" y="0.5" width="41" height="41" rx="7.5" stroke="#D9D8D8"/>
<g clip-path="url(#clip0_1_333)">
<path d="M30.841 22.724C32.6189 22.724 34.0605 21.2834 34.0605 19.5055C34.0605 17.7276 32.6189 16.286 30.841 16.286C29.0636 16.286 27.6219 17.7276 27.6219 19.5055C27.622 21.2834 29.0636 22.724 30.841 22.724Z" fill="#13448F"/>
<path d="M34.9632 25.8262C34.8197 24.9642 34.1072 23.7578 33.5679 23.2189C33.4969 23.1475 33.1793 23.131 33.0936 23.1841C32.4379 23.5874 31.6677 23.8247 30.841 23.8247C30.0153 23.8247 29.245 23.5874 28.5893 23.1841C28.5031 23.131 28.186 23.1475 28.115 23.2189C27.9642 23.3697 27.7997 23.5704 27.6393 23.8031C28.0733 24.6201 28.4174 25.488 28.5416 26.2354C28.6658 26.9846 28.6255 27.6939 28.4247 28.3405C29.1377 28.5985 29.9928 28.7117 30.841 28.7117C33.0533 28.7117 35.3174 27.9446 34.9632 25.8262Z" fill="#13448F"/>
<path d="M20.9173 21.3659C23.7986 21.3659 26.1346 19.0299 26.1346 16.1486C26.1346 13.2682 23.7986 10.9322 20.9173 10.9322C18.0364 10.9322 15.7013 13.2682 15.7013 16.1486C15.7013 19.0299 18.0364 21.3659 20.9173 21.3659Z" fill="#13448F"/>
<path d="M25.335 22.165C25.2218 22.0523 24.7077 22.0235 24.5679 22.11C23.5044 22.7644 22.2562 23.1475 20.9173 23.1475C19.5793 23.1475 18.3305 22.7644 17.2675 22.11C17.1278 22.0234 16.6137 22.0523 16.5005 22.165C15.6243 23.0402 14.4696 24.9968 14.2373 26.3917C13.6645 29.8275 17.3345 31.0679 20.9173 31.0679C24.501 31.0679 28.171 29.8275 27.5982 26.3917C27.3658 24.9968 26.2111 23.0402 25.335 22.165Z" fill="#13448F"/>
<path d="M11.1589 22.724C12.9364 22.724 14.3779 21.2834 14.3779 19.5055C14.3779 17.7276 12.9364 16.286 11.1589 16.286C9.38098 16.286 7.93942 17.7276 7.93942 19.5055C7.93942 21.2834 9.38098 22.724 11.1589 22.724Z" fill="#13448F"/>
<path d="M13.2942 26.2354C13.4262 25.4505 13.7987 24.5262 14.2657 23.6716C14.1355 23.4939 14.0054 23.339 13.8853 23.2189C13.8143 23.1475 13.4972 23.131 13.4111 23.1841C12.7553 23.5874 11.985 23.8247 11.1589 23.8247C10.3327 23.8247 9.56194 23.5874 8.90673 23.1841C8.82098 23.131 8.50303 23.1475 8.43199 23.2189C7.8913 23.7578 7.18063 24.9642 7.03669 25.8262C6.68298 27.9446 8.9466 28.7116 11.1589 28.7116C11.9485 28.7116 12.7457 28.6145 13.4262 28.3923C13.2118 27.7325 13.1664 27.0066 13.2942 26.2354Z" fill="#13448F"/>
</g>
<defs>
<clipPath id="clip0_1_333">
<rect width="28" height="28" fill="white" transform="translate(7 7)"/>
</clipPath>
</defs>
</svg>
