<svg width="36" height="18" viewBox="0 0 36 18" fill="none" xmlns="http://www.w3.org/2000/svg">
<path d="M0 13.882V11.2401L7.85366 0H11.7685V10.9519H13.882V13.882H11.7685V17.2925H8.40607V13.882H0ZM8.62222 3.6026L3.69867 10.9519H8.62222V3.6026ZM17.8959 17.4606C17.2875 17.4606 16.7831 17.2765 16.3828 16.9082C15.9985 16.5239 15.8064 16.0516 15.8064 15.4912C15.8064 14.9308 15.9985 14.4664 16.3828 14.0982C16.7831 13.7139 17.2875 13.5218 17.8959 13.5218C18.4883 13.5218 18.9767 13.7139 19.361 14.0982C19.7453 14.4664 19.9374 14.9308 19.9374 15.4912C19.9374 16.0516 19.7453 16.5239 19.361 16.9082C18.9767 17.2765 18.4883 17.4606 17.8959 17.4606ZM22.118 13.882V11.2401L29.9716 0H33.8865V10.9519H36V13.882H33.8865V17.2925H30.524V13.882H22.118ZM30.7402 3.6026L25.8166 10.9519H30.7402V3.6026Z" fill="#00B67A"/>
</svg>
