<svg width="70" height="37" viewBox="0 0 70 37" fill="none" xmlns="http://www.w3.org/2000/svg">
<path d="M69.6947 26.6608V36.2571H66.7373V26.6608H69.6947ZM70 24.0327C70 24.261 69.9523 24.4769 69.8569 24.6805C69.7615 24.8779 69.6311 25.0537 69.4658 25.208C69.3004 25.356 69.1064 25.4763 68.8838 25.5689C68.6676 25.6552 68.4354 25.6984 68.1874 25.6984C67.9457 25.6984 67.7199 25.6552 67.5101 25.5689C67.3002 25.4763 67.1126 25.356 66.9472 25.208C66.7882 25.0537 66.661 24.8779 66.5656 24.6805C66.4766 24.4769 66.432 24.261 66.432 24.0327C66.432 23.7983 66.4766 23.5793 66.5656 23.3757C66.661 23.1721 66.7882 22.9932 66.9472 22.839C67.1126 22.6847 67.3002 22.5644 67.5101 22.4781C67.7199 22.3917 67.9457 22.3485 68.1874 22.3485C68.4354 22.3485 68.6676 22.3917 68.8838 22.4781C69.1064 22.5644 69.3004 22.6847 69.4658 22.839C69.6311 22.9932 69.7615 23.1721 69.8569 23.3757C69.9523 23.5793 70 23.7983 70 24.0327Z" fill="#13448F"/>
<path d="M61.8987 32.3519C61.3072 32.3765 60.8207 32.4259 60.4391 32.4999C60.0575 32.574 59.7554 32.6665 59.5328 32.7775C59.3102 32.8886 59.1544 33.0151 59.0653 33.157C58.9827 33.2988 58.9413 33.4531 58.9413 33.6196C58.9413 33.9466 59.0335 34.178 59.218 34.3137C59.4024 34.4432 59.6727 34.508 60.0289 34.508C60.4105 34.508 60.7444 34.4432 61.0306 34.3137C61.3168 34.1841 61.6062 33.9744 61.8987 33.6844V32.3519ZM56.5754 27.9933C57.1732 27.4813 57.8347 27.1018 58.5597 26.8551C59.2911 26.6021 60.0734 26.4757 60.9066 26.4757C61.5044 26.4757 62.0418 26.5713 62.5188 26.7625C63.0022 26.9476 63.4092 27.2098 63.7399 27.5491C64.077 27.8823 64.3346 28.2802 64.5127 28.7429C64.6907 29.2056 64.7798 29.7114 64.7798 30.2605V36.257H63.4251C63.1453 36.257 62.9322 36.22 62.7859 36.1459C62.646 36.0719 62.5284 35.9177 62.433 35.6833L62.2231 35.1558C61.975 35.3594 61.7365 35.5383 61.5076 35.6925C61.2786 35.8467 61.0401 35.9794 60.7921 36.0904C60.5504 36.1953 60.2896 36.2724 60.0098 36.3218C59.7363 36.3773 59.431 36.4051 59.094 36.4051C58.6424 36.4051 58.2322 36.3495 57.8633 36.2385C57.4944 36.1213 57.1796 35.9516 56.9188 35.7295C56.6644 35.5074 56.4673 35.2329 56.3274 34.9059C56.1874 34.5728 56.1175 34.1903 56.1175 33.7585C56.1175 33.413 56.2065 33.0644 56.3846 32.7128C56.5627 32.355 56.8711 32.0311 57.31 31.7411C57.7488 31.445 58.3403 31.1982 59.0844 31.0008C59.8285 30.8034 60.7666 30.6923 61.8987 30.6677V30.2605C61.8987 29.6991 61.7779 29.295 61.5362 29.0482C61.3009 28.7953 60.9638 28.6688 60.525 28.6688C60.1752 28.6688 59.889 28.7059 59.6664 28.7799C59.4438 28.8539 59.2434 28.9372 59.0653 29.0297C58.8936 29.1223 58.7251 29.2056 58.5597 29.2796C58.3944 29.3536 58.1972 29.3906 57.9682 29.3906C57.7647 29.3906 57.593 29.3413 57.4531 29.2426C57.3132 29.1439 57.1987 29.0266 57.1096 28.8909L56.5754 27.9933Z" fill="#13448F"/>
<path d="M52.3683 28.1414C52.6735 27.6231 53.0233 27.216 53.4177 26.9199C53.8183 26.6237 54.2763 26.4757 54.7914 26.4757C55.2366 26.4757 55.5991 26.5775 55.879 26.781L55.6882 28.8909C55.6564 29.0266 55.6023 29.1192 55.526 29.1685C55.456 29.2179 55.3575 29.2426 55.2303 29.2426C55.1794 29.2426 55.1126 29.2395 55.0299 29.2333C54.9472 29.2272 54.8614 29.221 54.7723 29.2148C54.6833 29.2025 54.5911 29.1932 54.4957 29.1871C54.4066 29.1747 54.324 29.1685 54.2476 29.1685C53.8152 29.1685 53.4685 29.2796 53.2078 29.5017C52.9534 29.7238 52.7371 30.0322 52.5591 30.4271V36.257H49.6017V26.6607H51.357C51.5033 26.6607 51.6241 26.6731 51.7195 26.6978C51.8213 26.7224 51.904 26.7625 51.9676 26.8181C52.0375 26.8674 52.0884 26.9353 52.1202 27.0217C52.1584 27.108 52.1902 27.2129 52.2156 27.3363L52.3683 28.1414Z" fill="#13448F"/>
<path d="M47.5927 26.6609V36.2572H45.761C45.3921 36.2572 45.1505 36.0968 45.036 35.776L44.8643 35.2208C44.6735 35.3997 44.4763 35.5631 44.2728 35.7112C44.0693 35.8531 43.8499 35.9765 43.6145 36.0814C43.3856 36.1801 43.1344 36.2572 42.8609 36.3127C42.5938 36.3744 42.3012 36.4052 41.9832 36.4052C41.4426 36.4052 40.9624 36.3158 40.5427 36.1369C40.1293 35.9518 39.7795 35.6958 39.4933 35.3688C39.2071 35.0418 38.9908 34.6563 38.8445 34.2121C38.6983 33.7679 38.6251 33.2805 38.6251 32.75V26.6609H41.5825V32.75C41.5825 33.225 41.6938 33.5921 41.9164 33.8512C42.139 34.1103 42.4666 34.2398 42.899 34.2398C43.2234 34.2398 43.5255 34.1751 43.8053 34.0455C44.0915 33.9098 44.3682 33.7278 44.6353 33.4995V26.6609H47.5927Z" fill="#13448F"/>
<path d="M34.9375 36.4052C34.4669 36.4052 34.0503 36.3404 33.6878 36.2109C33.3316 36.0752 33.0295 35.887 32.7815 35.6464C32.5398 35.3996 32.3554 35.1035 32.2282 34.758C32.101 34.4126 32.0374 34.027 32.0374 33.6013V28.6412H31.1978C31.0452 28.6412 30.9148 28.595 30.8067 28.5024C30.6986 28.4037 30.6445 28.2618 30.6445 28.0768V26.957L32.2186 26.6609L32.8006 24.3197C32.8769 24.0236 33.0931 23.8755 33.4493 23.8755H34.9948V26.6794H37.4465V28.6412H34.9948V33.407C34.9948 33.6291 35.0488 33.8141 35.1569 33.9622C35.2714 34.1041 35.4336 34.175 35.6435 34.175C35.7516 34.175 35.8406 34.1658 35.9106 34.1473C35.9869 34.1226 36.0505 34.0979 36.1014 34.0732C36.1586 34.0424 36.2095 34.0177 36.254 33.9992C36.3049 33.9745 36.3622 33.9622 36.4258 33.9622C36.5148 33.9622 36.5848 33.9838 36.6356 34.027C36.6929 34.064 36.7501 34.1257 36.8074 34.2121L37.7041 35.5724C37.3225 35.85 36.8932 36.0597 36.4162 36.2016C35.9392 36.3374 35.4463 36.4052 34.9375 36.4052Z" fill="#13448F"/>
<path d="M23.3742 27.6971C23.565 27.5244 23.7621 27.364 23.9657 27.2159C24.1692 27.0679 24.3854 26.9445 24.6144 26.8458C24.8497 26.7409 25.1009 26.6607 25.368 26.6052C25.6415 26.5435 25.9373 26.5126 26.2553 26.5126C26.7959 26.5126 27.2729 26.6052 27.6863 26.7902C28.106 26.9692 28.459 27.2221 28.7452 27.5491C29.0314 27.8699 29.2476 28.2554 29.3939 28.7058C29.5402 29.15 29.6133 29.6343 29.6133 30.1586V36.2569H26.6559V30.1586C26.6559 29.6898 26.5446 29.3258 26.322 29.0667C26.0994 28.8014 25.7719 28.6688 25.3394 28.6688C25.0151 28.6688 24.7098 28.7366 24.4236 28.8724C24.1437 29.0019 23.8703 29.1808 23.6031 29.4091V36.2569H20.6457V26.6607H22.4774C22.8463 26.6607 23.088 26.8211 23.2025 27.1419L23.3742 27.6971Z" fill="#13448F"/>
<path d="M16.5138 30.3067C16.5138 30.0784 16.482 29.8564 16.4184 29.6404C16.3612 29.4245 16.2626 29.2333 16.1227 29.0667C15.9891 28.894 15.811 28.7551 15.5884 28.6503C15.3658 28.5454 15.0955 28.493 14.7775 28.493C14.2178 28.493 13.779 28.6503 13.461 28.9649C13.143 29.2734 12.9331 29.7206 12.8314 30.3067H16.5138ZM12.7932 31.9724C12.8886 32.7744 13.1398 33.3574 13.5469 33.7214C13.9539 34.0792 14.4786 34.2581 15.121 34.2581C15.4644 34.2581 15.7601 34.218 16.0082 34.1378C16.2562 34.0576 16.4756 33.9681 16.6664 33.8694C16.8636 33.7707 17.0417 33.6813 17.2007 33.6011C17.366 33.5209 17.5378 33.4808 17.7158 33.4808C17.9512 33.4808 18.1292 33.5641 18.2501 33.7306L19.1087 34.7578C18.8034 35.0971 18.4727 35.3747 18.1165 35.5906C17.7667 35.8004 17.4042 35.967 17.029 36.0904C16.6601 36.2076 16.288 36.2878 15.9128 36.331C15.5439 36.3803 15.1909 36.405 14.8538 36.405C14.1606 36.405 13.5087 36.297 12.8981 36.0811C12.2939 35.859 11.7629 35.532 11.305 35.1002C10.8534 34.6684 10.4941 34.1316 10.2269 33.49C9.96618 32.8484 9.8358 32.102 9.8358 31.2506C9.8358 30.609 9.9471 30.0013 10.1697 29.4276C10.3987 28.8538 10.723 28.3511 11.1428 27.9192C11.5689 27.4874 12.0809 27.145 12.6787 26.892C13.2829 26.6391 13.9634 26.5126 14.7203 26.5126C15.3754 26.5126 15.9732 26.6113 16.5138 26.8088C17.0608 27.0062 17.5282 27.293 17.9162 27.6694C18.3105 28.0457 18.6158 28.5084 18.832 29.0574C19.0546 29.6003 19.1659 30.2172 19.1659 30.9082C19.1659 31.1241 19.1564 31.3 19.1373 31.4357C19.1182 31.5714 19.0832 31.6794 19.0324 31.7596C18.9815 31.8398 18.9115 31.8953 18.8225 31.9261C18.7398 31.957 18.6317 31.9724 18.4981 31.9724H12.7932Z" fill="#13448F"/>
<path d="M8.51936 28.9371C8.43032 29.042 8.34446 29.1253 8.26178 29.187C8.1791 29.2487 8.06144 29.2795 7.9088 29.2795C7.76252 29.2795 7.62896 29.2456 7.50812 29.1777C7.39364 29.1099 7.26326 29.0358 7.11698 28.9556C6.9707 28.8693 6.79898 28.7922 6.60182 28.7243C6.40467 28.6564 6.15981 28.6225 5.86725 28.6225C5.50473 28.6225 5.18991 28.6873 4.92279 28.8168C4.66203 28.9464 4.44579 29.1315 4.27407 29.3721C4.10235 29.6127 3.97515 29.9088 3.89247 30.2604C3.80979 30.6059 3.76845 30.9977 3.76845 31.4357C3.76845 32.3549 3.94971 33.0613 4.31223 33.5548C4.68111 34.0483 5.18673 34.2951 5.82909 34.2951C6.17253 34.2951 6.44283 34.255 6.63998 34.1748C6.8435 34.0884 7.01522 33.9959 7.15514 33.8972C7.29506 33.7923 7.42226 33.6967 7.53674 33.6103C7.65758 33.524 7.80704 33.4808 7.98512 33.4808C8.22044 33.4808 8.39852 33.5641 8.51936 33.7306L9.37796 34.7578C9.07268 35.0971 8.7515 35.3747 8.41442 35.5906C8.07734 35.8004 7.73072 35.967 7.37456 36.0904C7.02476 36.2076 6.67178 36.2878 6.31562 36.331C5.95947 36.3803 5.61285 36.405 5.27577 36.405C4.67157 36.405 4.09281 36.2939 3.53949 36.0719C2.99253 35.8498 2.50917 35.529 2.08941 35.1094C1.67601 34.6838 1.34529 34.1625 1.09725 33.5456C0.85557 32.9286 0.73473 32.2253 0.73473 31.4357C0.73473 30.7447 0.83967 30.1 1.04955 29.5016C1.26579 28.897 1.58061 28.3757 1.99401 27.9377C2.41377 27.4935 2.92893 27.145 3.53949 26.892C4.15641 26.6391 4.86873 26.5126 5.67645 26.5126C6.45236 26.5126 7.13288 26.6329 7.718 26.8735C8.30312 27.1141 8.831 27.4658 9.30164 27.9285L8.51936 28.9371Z" fill="#13448F"/>
<path d="M46.7311 9.94791C46.1396 9.97259 45.6531 10.0219 45.2715 10.096C44.8899 10.17 44.5878 10.2625 44.3652 10.3736C44.1426 10.4846 43.9868 10.6111 43.8977 10.753C43.815 10.8949 43.7737 11.0491 43.7737 11.2157C43.7737 11.5427 43.8659 11.774 44.0504 11.9097C44.2348 12.0393 44.5051 12.1041 44.8613 12.1041C45.2429 12.1041 45.5768 12.0393 45.863 11.9097C46.1492 11.7802 46.4385 11.5704 46.7311 11.2805V9.94791ZM41.4078 5.58935C42.0056 5.07731 42.6671 4.6979 43.3921 4.45113C44.1235 4.19819 44.9058 4.07172 45.7389 4.07172C46.3368 4.07172 46.8742 4.16734 47.3512 4.35859C47.8346 4.54367 48.2416 4.80586 48.5723 5.14517C48.9094 5.47831 49.167 5.87622 49.3451 6.33891C49.5231 6.80161 49.6122 7.30748 49.6122 7.85654V13.853H48.2575C47.9777 13.853 47.7646 13.816 47.6183 13.742C47.4784 13.668 47.3607 13.5137 47.2653 13.2793L47.0555 12.7518C46.8074 12.9554 46.5689 13.1343 46.34 13.2886C46.111 13.4428 45.8725 13.5754 45.6245 13.6865C45.3828 13.7913 45.122 13.8685 44.8422 13.9178C44.5687 13.9733 44.2634 14.0011 43.9263 14.0011C43.4748 14.0011 43.0646 13.9456 42.6957 13.8345C42.3268 13.7173 42.012 13.5477 41.7512 13.3256C41.4968 13.1035 41.2997 12.8289 41.1598 12.502C41.0198 12.1688 40.9499 11.7863 40.9499 11.3545C40.9499 11.009 41.0389 10.6605 41.217 10.3088C41.3951 9.951 41.7035 9.62711 42.1424 9.33716C42.5812 9.04104 43.1727 8.79427 43.9168 8.59685C44.6609 8.39944 45.599 8.28839 46.7311 8.26371V7.85654C46.7311 7.29514 46.6103 6.89106 46.3686 6.64429C46.1333 6.39135 45.7962 6.26488 45.3574 6.26488C45.0076 6.26488 44.7213 6.3019 44.4987 6.37593C44.2761 6.44996 44.0758 6.53324 43.8977 6.62578C43.726 6.71832 43.5575 6.80161 43.3921 6.87564C43.2268 6.94967 43.0296 6.98668 42.8006 6.98668C42.5971 6.98668 42.4254 6.93733 42.2855 6.83862C42.1456 6.73991 42.0311 6.6227 41.942 6.48698L41.4078 5.58935Z" fill="#13448F"/>
<path d="M33.7023 5.09887C34.0584 4.80275 34.4432 4.56523 34.8566 4.38632C35.2764 4.20125 35.7756 4.10871 36.3544 4.10871C36.895 4.10871 37.372 4.20125 37.7854 4.38632C38.2051 4.56523 38.5581 4.81817 38.8443 5.14514C39.1305 5.46594 39.3467 5.85152 39.493 6.30187C39.6393 6.74605 39.7125 7.23034 39.7125 7.75472V13.853H36.7551V7.75472C36.7551 7.28586 36.6438 6.92188 36.4212 6.66277C36.1986 6.39749 35.871 6.26485 35.4385 6.26485C35.1142 6.26485 34.8089 6.33272 34.5227 6.46844C34.2429 6.59799 33.9694 6.7769 33.7023 7.00516V13.853H30.7449V0H33.7023V5.09887Z" fill="#13448F"/>
<path d="M22.7276 11.2435C22.9502 11.4779 23.1918 11.6445 23.4526 11.7432C23.7134 11.8419 23.9868 11.8912 24.273 11.8912C24.5465 11.8912 24.7977 11.8388 25.0267 11.7339C25.2557 11.629 25.4528 11.4625 25.6182 11.2342C25.7899 10.9998 25.9235 10.6975 26.0189 10.3273C26.1143 9.95717 26.162 9.50681 26.162 8.97626C26.162 8.47038 26.1238 8.04471 26.0475 7.69923C25.9712 7.35375 25.863 7.07614 25.7231 6.86638C25.5896 6.65046 25.4274 6.49623 25.2366 6.40369C25.0458 6.31115 24.8327 6.26488 24.5974 6.26488C24.1649 6.26488 23.8088 6.342 23.5289 6.49623C23.2491 6.65046 22.982 6.87564 22.7276 7.17176V11.2435ZM22.5463 5.44129C22.9343 5.04029 23.3731 4.71332 23.8628 4.46038C24.3589 4.20127 24.9472 4.07172 25.6277 4.07172C26.1429 4.07172 26.6199 4.18277 27.0587 4.40486C27.4975 4.62695 27.876 4.94775 28.194 5.36726C28.512 5.78677 28.76 6.3019 28.9381 6.91265C29.1225 7.51724 29.2147 8.20511 29.2147 8.97626C29.2147 9.69806 29.1098 10.3643 28.8999 10.9751C28.6964 11.5858 28.407 12.1164 28.0318 12.5668C27.6629 13.0171 27.2177 13.3688 26.6962 13.6217C26.181 13.8746 25.6086 14.0011 24.979 14.0011C24.4638 14.0011 24.0314 13.9302 23.6816 13.7883C23.3318 13.6464 23.0138 13.4551 22.7276 13.2145V16.8976H19.7702V4.2568H21.6018C21.9707 4.2568 22.2124 4.4172 22.3269 4.738L22.5463 5.44129Z" fill="#13448F"/>
<path d="M17.7714 0V13.853H14.814V0H17.7714Z" fill="#13448F"/>
<path d="M8.93897 8.69851L7.65107 5.00622C7.55567 4.77179 7.45391 4.49726 7.34579 4.18263C7.23767 3.86183 7.12955 3.51635 7.02143 3.1462C6.92603 3.52252 6.82427 3.87108 6.71615 4.19188C6.60803 4.51268 6.50627 4.7903 6.41087 5.02473L5.13252 8.69851H8.93897ZM14.0619 13.8529H11.5625C11.2826 13.8529 11.0568 13.7912 10.8851 13.6678C10.7134 13.5383 10.583 13.3748 10.494 13.1774L9.67355 10.8269H4.3884L3.56796 13.1774C3.498 13.3501 3.3708 13.5074 3.18636 13.6493C3.00828 13.785 2.78568 13.8529 2.51856 13.8529H0L5.38056 0.370044H8.68139L14.0619 13.8529Z" fill="#13448F"/>
</svg>
