<svg width="231" height="128" viewBox="0 0 231 128" fill="none" xmlns="http://www.w3.org/2000/svg">
<path d="M230.499 127.013C188.507 120.957 152.26 98.1655 125.233 65.3546C115.925 54.0541 107.278 39.7997 103.366 25.4999C101.592 19.0159 99.9711 6.62651 106.085 2.18023C116.237 -5.20225 123.879 13.7285 126.261 20.6833C130.567 33.2551 121.276 54.2127 108.319 58.2179C84.2678 65.6525 52.6513 56.4352 29.0366 50.6304C19.6079 48.3126 10.4039 43.9885 1.01034 42.1174M1.01034 42.1174C-2.63423 41.3914 14.4024 39.6124 16.0063 38.6592C26.4088 37.6697 23.4051 37.3791 11.731 39.6284C10.1848 40.2366 1.19861 41.1722 1.01034 42.1174ZM1.01034 42.1174C0.878949 42.777 11.4102 53.5713 12.5845 55.8372" stroke="#635A3A" stroke-linecap="round"/>
</svg>
